<svg width="18" height="18" viewBox="0 0 18 18" fill="none" xmlns="http://www.w3.org/2000/svg">
<path d="M9 3C5.4825 3 2.445 5.055 1.0125 8.025C0.832502 8.4 0.832502 8.85 1.0125 9.225C2.445 12.195 5.4825 14.25 9 14.25C12.5175 14.25 15.555 12.195 16.9875 9.225C17.1675 8.85 17.1675 8.4 16.9875 8.025C15.555 5.055 12.5175 3 9 3ZM9 12C7.14 12 5.625 10.485 5.625 8.625C5.625 6.765 7.14 5.25 9 5.25C10.86 5.25 12.375 6.765 12.375 8.625C12.375 10.485 10.86 12 9 12Z" fill="#BCB6AA"/>
<path d="M9.00001 10.65C10.1184 10.65 11.025 9.74338 11.025 8.625C11.025 7.50662 10.1184 6.6 9.00001 6.6C7.88163 6.6 6.97501 7.50662 6.97501 8.625C6.97501 9.74338 7.88163 10.65 9.00001 10.65Z" fill="#BCB6AA"/>
</svg>
