<svg width="195" height="42" viewBox="0 0 195 42" fill="none" xmlns="http://www.w3.org/2000/svg">
<rect width="25" height="25" rx="5" fill="#FFBB12"/>
<path d="M12.8926 7.40625V33H7.63672V7.40625H12.8926ZM22.4727 18.041V33H17.4102V13.9805H22.1562L22.4727 18.041ZM21.7344 22.8223H20.3633C20.3633 21.416 20.5449 20.1504 20.9082 19.0254C21.2715 17.8887 21.7812 16.9219 22.4375 16.125C23.0938 15.3164 23.873 14.7012 24.7754 14.2793C25.6895 13.8457 26.709 13.6289 27.834 13.6289C28.7246 13.6289 29.5391 13.7578 30.2773 14.0156C31.0156 14.2734 31.6484 14.6836 32.1758 15.2461C32.7148 15.8086 33.125 16.5527 33.4062 17.4785C33.6992 18.4043 33.8457 19.5352 33.8457 20.8711V33H28.748V20.8535C28.748 20.0098 28.6309 19.3535 28.3965 18.8848C28.1621 18.416 27.8164 18.0879 27.3594 17.9004C26.9141 17.7012 26.3633 17.6016 25.707 17.6016C25.0273 17.6016 24.4355 17.7363 23.9316 18.0059C23.4395 18.2754 23.0293 18.6504 22.7012 19.1309C22.3848 19.5996 22.1445 20.1504 21.9805 20.7832C21.8164 21.416 21.7344 22.0957 21.7344 22.8223ZM47.9785 27.7441C47.9785 27.3809 47.873 27.0527 47.6621 26.7598C47.4512 26.4668 47.0586 26.1973 46.4844 25.9512C45.9219 25.6934 45.1074 25.459 44.041 25.248C43.0801 25.0371 42.1836 24.7734 41.3516 24.457C40.5312 24.1289 39.8164 23.7363 39.207 23.2793C38.6094 22.8223 38.1406 22.2832 37.8008 21.6621C37.4609 21.0293 37.291 20.3086 37.291 19.5C37.291 18.7031 37.4609 17.9531 37.8008 17.25C38.1523 16.5469 38.6504 15.9258 39.2949 15.3867C39.9512 14.8359 40.748 14.4082 41.6855 14.1035C42.6348 13.7871 43.7012 13.6289 44.8848 13.6289C46.5371 13.6289 47.9551 13.8926 49.1387 14.4199C50.334 14.9473 51.248 15.6738 51.8809 16.5996C52.5254 17.5137 52.8477 18.5566 52.8477 19.7285H47.7852C47.7852 19.2363 47.6797 18.7969 47.4688 18.4102C47.2695 18.0117 46.9531 17.7012 46.5195 17.4785C46.0977 17.2441 45.5469 17.127 44.8672 17.127C44.3047 17.127 43.8184 17.2266 43.4082 17.4258C42.998 17.6133 42.6816 17.8711 42.459 18.1992C42.248 18.5156 42.1426 18.8672 42.1426 19.2539C42.1426 19.5469 42.2012 19.8105 42.3184 20.0449C42.4473 20.2676 42.6523 20.4727 42.9336 20.6602C43.2148 20.8477 43.5781 21.0234 44.0234 21.1875C44.4805 21.3398 45.043 21.4805 45.7109 21.6094C47.082 21.8906 48.3066 22.2598 49.3848 22.7168C50.4629 23.1621 51.3184 23.7715 51.9512 24.5449C52.584 25.3066 52.9004 26.3086 52.9004 27.5508C52.9004 28.3945 52.7129 29.168 52.3379 29.8711C51.9629 30.5742 51.4238 31.1895 50.7207 31.7168C50.0176 32.2324 49.1738 32.6367 48.1895 32.9297C47.2168 33.2109 46.1211 33.3516 44.9023 33.3516C43.1328 33.3516 41.6328 33.0352 40.4023 32.4023C39.1836 31.7695 38.2578 30.9668 37.625 29.9941C37.0039 29.0098 36.6934 28.002 36.6934 26.9707H41.4922C41.5156 27.6621 41.6914 28.2188 42.0195 28.6406C42.3594 29.0625 42.7871 29.3672 43.3027 29.5547C43.8301 29.7422 44.3984 29.8359 45.0078 29.8359C45.6641 29.8359 46.209 29.748 46.6426 29.5723C47.0762 29.3848 47.4043 29.1387 47.627 28.834C47.8613 28.5176 47.9785 28.1543 47.9785 27.7441ZM64.0449 29.3965C64.666 29.3965 65.2168 29.2793 65.6973 29.0449C66.1777 28.7988 66.5527 28.459 66.8223 28.0254C67.1035 27.5801 67.25 27.0586 67.2617 26.4609H72.0254C72.0137 27.7969 71.6562 28.9863 70.9531 30.0293C70.25 31.0605 69.3066 31.875 68.123 32.4727C66.9395 33.0586 65.6152 33.3516 64.1504 33.3516C62.6738 33.3516 61.3848 33.1055 60.2832 32.6133C59.1934 32.1211 58.2852 31.4414 57.5586 30.5742C56.832 29.6953 56.2871 28.6758 55.9238 27.5156C55.5605 26.3438 55.3789 25.0898 55.3789 23.7539V23.2441C55.3789 21.8965 55.5605 20.6426 55.9238 19.4824C56.2871 18.3105 56.832 17.291 57.5586 16.4238C58.2852 15.5449 59.1934 14.8594 60.2832 14.3672C61.373 13.875 62.6504 13.6289 64.1152 13.6289C65.6738 13.6289 67.0391 13.9277 68.2109 14.5254C69.3945 15.123 70.3203 15.9785 70.9883 17.0918C71.668 18.1934 72.0137 19.5 72.0254 21.0117H67.2617C67.25 20.3789 67.1152 19.8047 66.8574 19.2891C66.6113 18.7734 66.248 18.3633 65.7676 18.0586C65.2988 17.7422 64.7188 17.584 64.0273 17.584C63.2891 17.584 62.6855 17.7422 62.2168 18.0586C61.748 18.3633 61.3848 18.7852 61.127 19.3242C60.8691 19.8516 60.6875 20.4551 60.582 21.1348C60.4883 21.8027 60.4414 22.5059 60.4414 23.2441V23.7539C60.4414 24.4922 60.4883 25.2012 60.582 25.8809C60.6758 26.5605 60.8516 27.1641 61.1094 27.6914C61.3789 28.2188 61.748 28.6348 62.2168 28.9395C62.6855 29.2441 63.2949 29.3965 64.0449 29.3965ZM80.0234 18.1289V33H74.9609V13.9805H79.7246L80.0234 18.1289ZM85.7539 13.8574L85.666 18.5508C85.4199 18.5156 85.1211 18.4863 84.7695 18.4629C84.4297 18.4277 84.1191 18.4102 83.8379 18.4102C83.123 18.4102 82.502 18.5039 81.9746 18.6914C81.459 18.8672 81.0254 19.1309 80.6738 19.4824C80.334 19.834 80.0762 20.2617 79.9004 20.7656C79.7363 21.2695 79.6426 21.8438 79.6191 22.4883L78.5996 22.1719C78.5996 20.9414 78.7227 19.8105 78.9688 18.7793C79.2148 17.7363 79.5723 16.8281 80.041 16.0547C80.5215 15.2812 81.1074 14.6836 81.7988 14.2617C82.4902 13.8398 83.2812 13.6289 84.1719 13.6289C84.4531 13.6289 84.7402 13.6523 85.0332 13.6992C85.3262 13.7344 85.5664 13.7871 85.7539 13.8574ZM96.5469 33.3516C95.0703 33.3516 93.7461 33.1172 92.5742 32.6484C91.4023 32.168 90.4062 31.5059 89.5859 30.6621C88.7773 29.8184 88.1562 28.8398 87.7227 27.7266C87.2891 26.6016 87.0723 25.4062 87.0723 24.1406V23.4375C87.0723 21.9961 87.2773 20.6777 87.6875 19.4824C88.0977 18.2871 88.6836 17.25 89.4453 16.3711C90.2188 15.4922 91.1562 14.8184 92.2578 14.3496C93.3594 13.8691 94.6016 13.6289 95.9844 13.6289C97.332 13.6289 98.5273 13.8516 99.5703 14.2969C100.613 14.7422 101.486 15.375 102.189 16.1953C102.904 17.0156 103.443 18 103.807 19.1484C104.17 20.2852 104.352 21.5508 104.352 22.9453V25.0547H89.2344V21.6797H99.377V21.293C99.377 20.5898 99.248 19.9629 98.9902 19.4121C98.7441 18.8496 98.3691 18.4043 97.8652 18.0762C97.3613 17.748 96.7168 17.584 95.9316 17.584C95.2637 17.584 94.6895 17.7305 94.209 18.0234C93.7285 18.3164 93.3359 18.7266 93.0312 19.2539C92.7383 19.7812 92.5156 20.4023 92.3633 21.1172C92.2227 21.8203 92.1523 22.5938 92.1523 23.4375V24.1406C92.1523 24.9023 92.2578 25.6055 92.4688 26.25C92.6914 26.8945 93.002 27.4512 93.4004 27.9199C93.8105 28.3887 94.3027 28.752 94.877 29.0098C95.4629 29.2676 96.125 29.3965 96.8633 29.3965C97.7773 29.3965 98.627 29.2207 99.4121 28.8691C100.209 28.5059 100.895 27.9609 101.469 27.2344L103.93 29.9062C103.531 30.4805 102.986 31.0312 102.295 31.5586C101.615 32.0859 100.795 32.5195 99.834 32.8594C98.873 33.1875 97.7773 33.3516 96.5469 33.3516ZM113.457 29.3086L117.676 13.9805H122.967L116.551 33H113.352L113.457 29.3086ZM110.557 13.9805L114.793 29.3262L114.881 33H111.664L105.248 13.9805H110.557ZM135.219 28.7109V20.2383C135.219 19.6289 135.119 19.1074 134.92 18.6738C134.721 18.2285 134.41 17.8828 133.988 17.6367C133.578 17.3906 133.045 17.2676 132.389 17.2676C131.826 17.2676 131.34 17.3672 130.93 17.5664C130.52 17.7539 130.203 18.0293 129.98 18.3926C129.758 18.7441 129.646 19.1602 129.646 19.6406H124.584C124.584 18.832 124.771 18.0645 125.146 17.3379C125.521 16.6113 126.066 15.9727 126.781 15.4219C127.496 14.8594 128.346 14.4199 129.33 14.1035C130.326 13.7871 131.439 13.6289 132.67 13.6289C134.146 13.6289 135.459 13.875 136.607 14.3672C137.756 14.8594 138.658 15.5977 139.314 16.582C139.982 17.5664 140.316 18.7969 140.316 20.2734V28.4121C140.316 29.4551 140.381 30.3105 140.51 30.9785C140.639 31.6348 140.826 32.209 141.072 32.7012V33H135.957C135.711 32.4844 135.523 31.8398 135.395 31.0664C135.277 30.2812 135.219 29.4961 135.219 28.7109ZM135.887 21.416L135.922 24.2812H133.092C132.424 24.2812 131.844 24.3574 131.352 24.5098C130.859 24.6621 130.455 24.8789 130.139 25.1602C129.822 25.4297 129.588 25.7461 129.436 26.1094C129.295 26.4727 129.225 26.8711 129.225 27.3047C129.225 27.7383 129.324 28.1309 129.523 28.4824C129.723 28.8223 130.01 29.0918 130.385 29.291C130.76 29.4785 131.199 29.5723 131.703 29.5723C132.465 29.5723 133.127 29.4199 133.689 29.1152C134.252 28.8105 134.686 28.4355 134.99 27.9902C135.307 27.5449 135.471 27.123 135.482 26.7246L136.818 28.8691C136.631 29.3496 136.373 29.8477 136.045 30.3633C135.729 30.8789 135.324 31.3652 134.832 31.8223C134.34 32.2676 133.748 32.6367 133.057 32.9297C132.365 33.2109 131.545 33.3516 130.596 33.3516C129.389 33.3516 128.293 33.1113 127.309 32.6309C126.336 32.1387 125.562 31.4648 124.988 30.6094C124.426 29.7422 124.145 28.7578 124.145 27.6562C124.145 26.6602 124.332 25.7754 124.707 25.002C125.082 24.2285 125.633 23.5781 126.359 23.0508C127.098 22.5117 128.018 22.1074 129.119 21.8379C130.221 21.5566 131.498 21.416 132.951 21.416H135.887ZM154.203 20.0273V24H144.271V20.0273H154.203ZM168.705 27.7441C168.705 27.3809 168.6 27.0527 168.389 26.7598C168.178 26.4668 167.785 26.1973 167.211 25.9512C166.648 25.6934 165.834 25.459 164.768 25.248C163.807 25.0371 162.91 24.7734 162.078 24.457C161.258 24.1289 160.543 23.7363 159.934 23.2793C159.336 22.8223 158.867 22.2832 158.527 21.6621C158.188 21.0293 158.018 20.3086 158.018 19.5C158.018 18.7031 158.188 17.9531 158.527 17.25C158.879 16.5469 159.377 15.9258 160.021 15.3867C160.678 14.8359 161.475 14.4082 162.412 14.1035C163.361 13.7871 164.428 13.6289 165.611 13.6289C167.264 13.6289 168.682 13.8926 169.865 14.4199C171.061 14.9473 171.975 15.6738 172.607 16.5996C173.252 17.5137 173.574 18.5566 173.574 19.7285H168.512C168.512 19.2363 168.406 18.7969 168.195 18.4102C167.996 18.0117 167.68 17.7012 167.246 17.4785C166.824 17.2441 166.273 17.127 165.594 17.127C165.031 17.127 164.545 17.2266 164.135 17.4258C163.725 17.6133 163.408 17.8711 163.186 18.1992C162.975 18.5156 162.869 18.8672 162.869 19.2539C162.869 19.5469 162.928 19.8105 163.045 20.0449C163.174 20.2676 163.379 20.4727 163.66 20.6602C163.941 20.8477 164.305 21.0234 164.75 21.1875C165.207 21.3398 165.77 21.4805 166.438 21.6094C167.809 21.8906 169.033 22.2598 170.111 22.7168C171.189 23.1621 172.045 23.7715 172.678 24.5449C173.311 25.3066 173.627 26.3086 173.627 27.5508C173.627 28.3945 173.439 29.168 173.064 29.8711C172.689 30.5742 172.15 31.1895 171.447 31.7168C170.744 32.2324 169.9 32.6367 168.916 32.9297C167.943 33.2109 166.848 33.3516 165.629 33.3516C163.859 33.3516 162.359 33.0352 161.129 32.4023C159.91 31.7695 158.984 30.9668 158.352 29.9941C157.73 29.0098 157.42 28.002 157.42 26.9707H162.219C162.242 27.6621 162.418 28.2188 162.746 28.6406C163.086 29.0625 163.514 29.3672 164.029 29.5547C164.557 29.7422 165.125 29.8359 165.734 29.8359C166.391 29.8359 166.936 29.748 167.369 29.5723C167.803 29.3848 168.131 29.1387 168.354 28.834C168.588 28.5176 168.705 28.1543 168.705 27.7441ZM185.668 33.3516C184.191 33.3516 182.867 33.1172 181.695 32.6484C180.523 32.168 179.527 31.5059 178.707 30.6621C177.898 29.8184 177.277 28.8398 176.844 27.7266C176.41 26.6016 176.193 25.4062 176.193 24.1406V23.4375C176.193 21.9961 176.398 20.6777 176.809 19.4824C177.219 18.2871 177.805 17.25 178.566 16.3711C179.34 15.4922 180.277 14.8184 181.379 14.3496C182.48 13.8691 183.723 13.6289 185.105 13.6289C186.453 13.6289 187.648 13.8516 188.691 14.2969C189.734 14.7422 190.607 15.375 191.311 16.1953C192.025 17.0156 192.564 18 192.928 19.1484C193.291 20.2852 193.473 21.5508 193.473 22.9453V25.0547H178.355V21.6797H188.498V21.293C188.498 20.5898 188.369 19.9629 188.111 19.4121C187.865 18.8496 187.49 18.4043 186.986 18.0762C186.482 17.748 185.838 17.584 185.053 17.584C184.385 17.584 183.811 17.7305 183.33 18.0234C182.85 18.3164 182.457 18.7266 182.152 19.2539C181.859 19.7812 181.637 20.4023 181.484 21.1172C181.344 21.8203 181.273 22.5938 181.273 23.4375V24.1406C181.273 24.9023 181.379 25.6055 181.59 26.25C181.812 26.8945 182.123 27.4512 182.521 27.9199C182.932 28.3887 183.424 28.752 183.998 29.0098C184.584 29.2676 185.246 29.3965 185.984 29.3965C186.898 29.3965 187.748 29.2207 188.533 28.8691C189.33 28.5059 190.016 27.9609 190.59 27.2344L193.051 29.9062C192.652 30.4805 192.107 31.0312 191.416 31.5586C190.736 32.0859 189.916 32.5195 188.955 32.8594C187.994 33.1875 186.898 33.3516 185.668 33.3516Z" fill="#464237"/>
</svg>
